<mxfile host="app.diagrams.net" modified="2020-09-30T14:32:07.521Z" agent="5.0 (Windows NT 10.0; WOW64) AppleWebKit/537.36 (KHTML, like Gecko) coc_coc_browser/89.0.124 Chrome/83.0.4103.124 Safari/537.36" etag="JJP1pVsDjgvh3e9WDWB5" version="13.7.6" type="github">
  <diagram id="C5RBs43oDa-KdzZeNtuy" name="Page-1">
    <mxGraphModel dx="1108" dy="448" grid="1" gridSize="10" guides="1" tooltips="1" connect="1" arrows="1" fold="1" page="1" pageScale="1" pageWidth="827" pageHeight="1169" math="0" shadow="0">
      <root>
        <mxCell id="WIyWlLk6GJQsqaUBKTNV-0" />
        <mxCell id="WIyWlLk6GJQsqaUBKTNV-1" parent="WIyWlLk6GJQsqaUBKTNV-0" />
        <mxCell id="ePJHpCpypd7RiCd_NyLS-0" style="edgeStyle=orthogonalEdgeStyle;rounded=0;orthogonalLoop=1;jettySize=auto;html=1;exitX=0.5;exitY=1;exitDx=0;exitDy=0;" edge="1" parent="WIyWlLk6GJQsqaUBKTNV-1" source="ePJHpCpypd7RiCd_NyLS-1">
          <mxGeometry relative="1" as="geometry">
            <mxPoint x="410" y="230" as="targetPoint" />
          </mxGeometry>
        </mxCell>
        <mxCell id="ePJHpCpypd7RiCd_NyLS-1" value="" style="ellipse;whiteSpace=wrap;html=1;fillColor=#000000;" vertex="1" parent="WIyWlLk6GJQsqaUBKTNV-1">
          <mxGeometry x="370" y="160" width="80" height="40" as="geometry" />
        </mxCell>
        <mxCell id="ePJHpCpypd7RiCd_NyLS-32" style="rounded=0;orthogonalLoop=1;jettySize=auto;html=1;exitX=0.5;exitY=1;exitDx=0;exitDy=0;entryX=0.5;entryY=0;entryDx=0;entryDy=0;" edge="1" parent="WIyWlLk6GJQsqaUBKTNV-1" source="ePJHpCpypd7RiCd_NyLS-2" target="ePJHpCpypd7RiCd_NyLS-14">
          <mxGeometry relative="1" as="geometry" />
        </mxCell>
        <mxCell id="ePJHpCpypd7RiCd_NyLS-2" value="&lt;span&gt;Người quản lý&lt;/span&gt;" style="rounded=1;whiteSpace=wrap;html=1;fillColor=#FFFFFF;" vertex="1" parent="WIyWlLk6GJQsqaUBKTNV-1">
          <mxGeometry x="360" y="230" width="90" height="30" as="geometry" />
        </mxCell>
        <mxCell id="ePJHpCpypd7RiCd_NyLS-3" style="edgeStyle=none;rounded=0;orthogonalLoop=1;jettySize=auto;html=1;exitX=0;exitY=0.5;exitDx=0;exitDy=0;entryX=1;entryY=0.5;entryDx=0;entryDy=0;" edge="1" parent="WIyWlLk6GJQsqaUBKTNV-1" source="ePJHpCpypd7RiCd_NyLS-6" target="ePJHpCpypd7RiCd_NyLS-22">
          <mxGeometry relative="1" as="geometry" />
        </mxCell>
        <mxCell id="ePJHpCpypd7RiCd_NyLS-4" style="edgeStyle=none;rounded=0;orthogonalLoop=1;jettySize=auto;html=1;exitX=0;exitY=0.5;exitDx=0;exitDy=0;entryX=1;entryY=0.5;entryDx=0;entryDy=0;" edge="1" parent="WIyWlLk6GJQsqaUBKTNV-1" source="ePJHpCpypd7RiCd_NyLS-6" target="ePJHpCpypd7RiCd_NyLS-23">
          <mxGeometry relative="1" as="geometry" />
        </mxCell>
        <mxCell id="ePJHpCpypd7RiCd_NyLS-5" style="edgeStyle=none;rounded=0;orthogonalLoop=1;jettySize=auto;html=1;exitX=0;exitY=0.5;exitDx=0;exitDy=0;entryX=1;entryY=0.5;entryDx=0;entryDy=0;" edge="1" parent="WIyWlLk6GJQsqaUBKTNV-1" source="ePJHpCpypd7RiCd_NyLS-6" target="ePJHpCpypd7RiCd_NyLS-24">
          <mxGeometry relative="1" as="geometry" />
        </mxCell>
        <mxCell id="ePJHpCpypd7RiCd_NyLS-6" value="Quản lý" style="rounded=1;whiteSpace=wrap;html=1;fillColor=#FFFFFF;" vertex="1" parent="WIyWlLk6GJQsqaUBKTNV-1">
          <mxGeometry x="190" y="320" width="90" height="30" as="geometry" />
        </mxCell>
        <mxCell id="ePJHpCpypd7RiCd_NyLS-7" style="edgeStyle=none;rounded=0;orthogonalLoop=1;jettySize=auto;html=1;exitX=0.5;exitY=1;exitDx=0;exitDy=0;entryX=0.4;entryY=0;entryDx=0;entryDy=0;entryPerimeter=0;" edge="1" parent="WIyWlLk6GJQsqaUBKTNV-1" source="ePJHpCpypd7RiCd_NyLS-9" target="ePJHpCpypd7RiCd_NyLS-25">
          <mxGeometry relative="1" as="geometry" />
        </mxCell>
        <mxCell id="ePJHpCpypd7RiCd_NyLS-8" style="edgeStyle=none;rounded=0;orthogonalLoop=1;jettySize=auto;html=1;exitX=0.5;exitY=1;exitDx=0;exitDy=0;entryX=0.5;entryY=0;entryDx=0;entryDy=0;" edge="1" parent="WIyWlLk6GJQsqaUBKTNV-1" source="ePJHpCpypd7RiCd_NyLS-9" target="ePJHpCpypd7RiCd_NyLS-26">
          <mxGeometry relative="1" as="geometry" />
        </mxCell>
        <mxCell id="ePJHpCpypd7RiCd_NyLS-9" value="&#xa;&#xa;&lt;span style=&quot;color: rgb(0, 0, 0); font-family: helvetica; font-size: 12px; font-style: normal; font-weight: 400; letter-spacing: normal; text-align: center; text-indent: 0px; text-transform: none; word-spacing: 0px; background-color: rgb(248, 249, 250); display: inline; float: none;&quot;&gt;Tra cứu&lt;/span&gt;&#xa;&#xa;" style="rounded=1;whiteSpace=wrap;html=1;fillColor=#FFFFFF;" vertex="1" parent="WIyWlLk6GJQsqaUBKTNV-1">
          <mxGeometry x="200" y="450" width="90" height="30" as="geometry" />
        </mxCell>
        <mxCell id="ePJHpCpypd7RiCd_NyLS-10" style="edgeStyle=orthogonalEdgeStyle;rounded=0;orthogonalLoop=1;jettySize=auto;html=1;exitX=0;exitY=0.5;exitDx=0;exitDy=0;entryX=1;entryY=0.5;entryDx=0;entryDy=0;" edge="1" parent="WIyWlLk6GJQsqaUBKTNV-1" source="ePJHpCpypd7RiCd_NyLS-14" target="ePJHpCpypd7RiCd_NyLS-6">
          <mxGeometry relative="1" as="geometry" />
        </mxCell>
        <mxCell id="ePJHpCpypd7RiCd_NyLS-11" style="edgeStyle=orthogonalEdgeStyle;rounded=0;orthogonalLoop=1;jettySize=auto;html=1;exitX=1;exitY=0.5;exitDx=0;exitDy=0;" edge="1" parent="WIyWlLk6GJQsqaUBKTNV-1" source="ePJHpCpypd7RiCd_NyLS-14" target="ePJHpCpypd7RiCd_NyLS-18">
          <mxGeometry relative="1" as="geometry" />
        </mxCell>
        <mxCell id="ePJHpCpypd7RiCd_NyLS-12" style="edgeStyle=none;rounded=0;orthogonalLoop=1;jettySize=auto;html=1;exitX=0.5;exitY=1;exitDx=0;exitDy=0;entryX=0.5;entryY=0;entryDx=0;entryDy=0;" edge="1" parent="WIyWlLk6GJQsqaUBKTNV-1" source="ePJHpCpypd7RiCd_NyLS-14" target="ePJHpCpypd7RiCd_NyLS-9">
          <mxGeometry relative="1" as="geometry" />
        </mxCell>
        <mxCell id="ePJHpCpypd7RiCd_NyLS-13" style="edgeStyle=none;rounded=0;orthogonalLoop=1;jettySize=auto;html=1;exitX=0.5;exitY=1;exitDx=0;exitDy=0;entryX=0.5;entryY=0;entryDx=0;entryDy=0;" edge="1" parent="WIyWlLk6GJQsqaUBKTNV-1" source="ePJHpCpypd7RiCd_NyLS-14" target="ePJHpCpypd7RiCd_NyLS-21">
          <mxGeometry relative="1" as="geometry" />
        </mxCell>
        <mxCell id="ePJHpCpypd7RiCd_NyLS-14" value="Đăng nhập" style="rounded=1;whiteSpace=wrap;html=1;fillColor=#FFFFFF;" vertex="1" parent="WIyWlLk6GJQsqaUBKTNV-1">
          <mxGeometry x="360" y="320" width="90" height="30" as="geometry" />
        </mxCell>
        <mxCell id="ePJHpCpypd7RiCd_NyLS-15" style="edgeStyle=none;rounded=0;orthogonalLoop=1;jettySize=auto;html=1;exitX=1;exitY=0.5;exitDx=0;exitDy=0;entryX=0;entryY=0.5;entryDx=0;entryDy=0;" edge="1" parent="WIyWlLk6GJQsqaUBKTNV-1" source="ePJHpCpypd7RiCd_NyLS-18" target="ePJHpCpypd7RiCd_NyLS-27">
          <mxGeometry relative="1" as="geometry" />
        </mxCell>
        <mxCell id="ePJHpCpypd7RiCd_NyLS-16" style="edgeStyle=none;rounded=0;orthogonalLoop=1;jettySize=auto;html=1;exitX=1;exitY=0.5;exitDx=0;exitDy=0;entryX=0;entryY=0.5;entryDx=0;entryDy=0;" edge="1" parent="WIyWlLk6GJQsqaUBKTNV-1" source="ePJHpCpypd7RiCd_NyLS-18" target="ePJHpCpypd7RiCd_NyLS-28">
          <mxGeometry relative="1" as="geometry" />
        </mxCell>
        <mxCell id="ePJHpCpypd7RiCd_NyLS-17" style="edgeStyle=none;rounded=0;orthogonalLoop=1;jettySize=auto;html=1;exitX=1;exitY=0.5;exitDx=0;exitDy=0;entryX=0.111;entryY=0.667;entryDx=0;entryDy=0;entryPerimeter=0;" edge="1" parent="WIyWlLk6GJQsqaUBKTNV-1" source="ePJHpCpypd7RiCd_NyLS-18" target="ePJHpCpypd7RiCd_NyLS-29">
          <mxGeometry relative="1" as="geometry" />
        </mxCell>
        <mxCell id="ePJHpCpypd7RiCd_NyLS-18" value="Tiện ích" style="rounded=1;whiteSpace=wrap;html=1;fillColor=#FFFFFF;" vertex="1" parent="WIyWlLk6GJQsqaUBKTNV-1">
          <mxGeometry x="520" y="320" width="90" height="30" as="geometry" />
        </mxCell>
        <mxCell id="ePJHpCpypd7RiCd_NyLS-19" style="edgeStyle=none;rounded=0;orthogonalLoop=1;jettySize=auto;html=1;exitX=0.5;exitY=1;exitDx=0;exitDy=0;entryX=0.578;entryY=-0.033;entryDx=0;entryDy=0;entryPerimeter=0;" edge="1" parent="WIyWlLk6GJQsqaUBKTNV-1" source="ePJHpCpypd7RiCd_NyLS-21" target="ePJHpCpypd7RiCd_NyLS-30">
          <mxGeometry relative="1" as="geometry" />
        </mxCell>
        <mxCell id="ePJHpCpypd7RiCd_NyLS-20" style="edgeStyle=none;rounded=0;orthogonalLoop=1;jettySize=auto;html=1;exitX=0.5;exitY=1;exitDx=0;exitDy=0;entryX=0.5;entryY=0;entryDx=0;entryDy=0;" edge="1" parent="WIyWlLk6GJQsqaUBKTNV-1" source="ePJHpCpypd7RiCd_NyLS-21" target="ePJHpCpypd7RiCd_NyLS-31">
          <mxGeometry relative="1" as="geometry" />
        </mxCell>
        <mxCell id="ePJHpCpypd7RiCd_NyLS-21" value="Thống kê" style="rounded=1;whiteSpace=wrap;html=1;fillColor=#FFFFFF;" vertex="1" parent="WIyWlLk6GJQsqaUBKTNV-1">
          <mxGeometry x="520" y="450" width="90" height="30" as="geometry" />
        </mxCell>
        <mxCell id="ePJHpCpypd7RiCd_NyLS-22" value="Quản lý phòng" style="rounded=1;whiteSpace=wrap;html=1;fillColor=#FFFFFF;" vertex="1" parent="WIyWlLk6GJQsqaUBKTNV-1">
          <mxGeometry x="60" y="240" width="90" height="30" as="geometry" />
        </mxCell>
        <mxCell id="ePJHpCpypd7RiCd_NyLS-23" value="Quản lý khách hàng" style="rounded=1;whiteSpace=wrap;html=1;fillColor=#FFFFFF;" vertex="1" parent="WIyWlLk6GJQsqaUBKTNV-1">
          <mxGeometry x="60" y="300" width="90" height="30" as="geometry" />
        </mxCell>
        <mxCell id="ePJHpCpypd7RiCd_NyLS-24" value="Quản lý dịch vụ" style="rounded=1;whiteSpace=wrap;html=1;fillColor=#FFFFFF;" vertex="1" parent="WIyWlLk6GJQsqaUBKTNV-1">
          <mxGeometry x="60" y="360" width="90" height="30" as="geometry" />
        </mxCell>
        <mxCell id="ePJHpCpypd7RiCd_NyLS-25" value="&lt;span style=&quot;color: rgb(0 , 0 , 0) ; font-family: &amp;#34;helvetica&amp;#34; ; font-size: 12px ; font-style: normal ; font-weight: 400 ; letter-spacing: normal ; text-align: center ; text-indent: 0px ; text-transform: none ; word-spacing: 0px ; background-color: rgb(248 , 249 , 250) ; display: inline ; float: none&quot;&gt;Tra cứu phòng&lt;/span&gt;" style="rounded=1;whiteSpace=wrap;html=1;fillColor=#FFFFFF;" vertex="1" parent="WIyWlLk6GJQsqaUBKTNV-1">
          <mxGeometry x="80" y="530" width="90" height="30" as="geometry" />
        </mxCell>
        <mxCell id="ePJHpCpypd7RiCd_NyLS-26" value="&lt;span style=&quot;color: rgb(0 , 0 , 0) ; font-family: &amp;#34;helvetica&amp;#34; ; font-size: 12px ; font-style: normal ; font-weight: 400 ; letter-spacing: normal ; text-align: center ; text-indent: 0px ; text-transform: none ; word-spacing: 0px ; background-color: rgb(248 , 249 , 250) ; display: inline ; float: none&quot;&gt;Tra cứu khách hàng&lt;/span&gt;" style="rounded=1;whiteSpace=wrap;html=1;fillColor=#FFFFFF;" vertex="1" parent="WIyWlLk6GJQsqaUBKTNV-1">
          <mxGeometry x="250" y="530" width="90" height="30" as="geometry" />
        </mxCell>
        <mxCell id="ePJHpCpypd7RiCd_NyLS-27" value="Đặt phòng" style="rounded=1;whiteSpace=wrap;html=1;fillColor=#FFFFFF;" vertex="1" parent="WIyWlLk6GJQsqaUBKTNV-1">
          <mxGeometry x="700" y="200" width="90" height="30" as="geometry" />
        </mxCell>
        <mxCell id="ePJHpCpypd7RiCd_NyLS-28" value="Đặt dịch vụ" style="rounded=1;whiteSpace=wrap;html=1;fillColor=#FFFFFF;" vertex="1" parent="WIyWlLk6GJQsqaUBKTNV-1">
          <mxGeometry x="700" y="260" width="90" height="30" as="geometry" />
        </mxCell>
        <mxCell id="ePJHpCpypd7RiCd_NyLS-29" value="Lập hóa đơn" style="rounded=1;whiteSpace=wrap;html=1;fillColor=#FFFFFF;" vertex="1" parent="WIyWlLk6GJQsqaUBKTNV-1">
          <mxGeometry x="700" y="330" width="90" height="30" as="geometry" />
        </mxCell>
        <mxCell id="ePJHpCpypd7RiCd_NyLS-30" value="Thống kê doanh thu" style="rounded=1;whiteSpace=wrap;html=1;fillColor=#FFFFFF;" vertex="1" parent="WIyWlLk6GJQsqaUBKTNV-1">
          <mxGeometry x="440" y="530" width="90" height="30" as="geometry" />
        </mxCell>
        <mxCell id="ePJHpCpypd7RiCd_NyLS-31" value="Thống kê phòng" style="rounded=1;whiteSpace=wrap;html=1;fillColor=#FFFFFF;" vertex="1" parent="WIyWlLk6GJQsqaUBKTNV-1">
          <mxGeometry x="630" y="530" width="90" height="30" as="geometry" />
        </mxCell>
        <mxCell id="ePJHpCpypd7RiCd_NyLS-36" style="edgeStyle=orthogonalEdgeStyle;rounded=0;orthogonalLoop=1;jettySize=auto;html=1;exitX=0;exitY=0.5;exitDx=0;exitDy=0;" edge="1" parent="WIyWlLk6GJQsqaUBKTNV-1" source="ePJHpCpypd7RiCd_NyLS-2">
          <mxGeometry relative="1" as="geometry">
            <mxPoint x="370" y="230" as="targetPoint" />
            <Array as="points">
              <mxPoint x="240" y="245" />
              <mxPoint x="240" y="200" />
              <mxPoint x="370" y="200" />
              <mxPoint x="370" y="230" />
            </Array>
          </mxGeometry>
        </mxCell>
        <mxCell id="ePJHpCpypd7RiCd_NyLS-37" value="Đăng nhập thất bại" style="edgeLabel;html=1;align=center;verticalAlign=middle;resizable=0;points=[];" vertex="1" connectable="0" parent="ePJHpCpypd7RiCd_NyLS-36">
          <mxGeometry x="0.2294" y="-1" relative="1" as="geometry">
            <mxPoint as="offset" />
          </mxGeometry>
        </mxCell>
      </root>
    </mxGraphModel>
  </diagram>
</mxfile>
